<?xml version="1.0" standalone="yes"?>

<svg version="1.1" viewBox="0.0 0.0 537.0 100.0" fill="none" stroke="none" stroke-linecap="square" stroke-miterlimit="10" xmlns="http://www.w3.org/2000/svg" xmlns:xlink="http://www.w3.org/1999/xlink"><clipPath id="p.0"><path d="m0 0l537.0 0l0 100.0l-537.0 0l0 -100.0z" clip-rule="nonzero"></path></clipPath><g clip-path="url(#p.0)"><path fill="#000000" fill-opacity="0.0" d="m0 0l537.1102 0l0 100.0l-537.1102 0z" fill-rule="nonzero"></path><path fill="#ffffff" d="m4.194226 26.02641l0 0c0 -4.493746 3.6429005 -8.136646 8.136646 -8.136646l513.11255 0c2.157959 0 4.227539 0.8572521 5.753479 2.3831692c1.5258789 1.525917 2.3831787 3.5955048 2.3831787 5.753477l0 32.545605c0 4.4937477 -3.6429443 8.13665 -8.136658 8.13665l-513.11255 0c-4.4937453 0 -8.136646 -3.6429024 -8.136646 -8.13665z" fill-rule="nonzero"></path><path stroke="#000000" stroke-width="2.0" stroke-linejoin="round" stroke-linecap="butt" d="m4.194226 26.02641l0 0c0 -4.493746 3.6429005 -8.136646 8.136646 -8.136646l513.11255 0c2.157959 0 4.227539 0.8572521 5.753479 2.3831692c1.5258789 1.525917 2.3831787 3.5955048 2.3831787 5.753477l0 32.545605c0 4.4937477 -3.6429443 8.13665 -8.136658 8.13665l-513.11255 0c-4.4937453 0 -8.136646 -3.6429024 -8.136646 -8.13665z" fill-rule="nonzero"></path></g></svg>

